<?xml version="1.0" standalone="no"?><!DOCTYPE svg PUBLIC "-//W3C//DTD SVG 1.1//EN" "http://www.w3.org/Graphics/SVG/1.1/DTD/svg11.dtd"><svg t="1545838834469" class="icon" style="" viewBox="0 0 1024 1024" version="1.1" xmlns="http://www.w3.org/2000/svg" p-id="2323" xmlns:xlink="http://www.w3.org/1999/xlink" width="200" height="200"><defs><style type="text/css"></style></defs><path d="M591.530667 511.744l416.341333-416.768a54.613333 54.613333 0 0 0 0-76.8l-2.304-2.304a54.442667 54.442667 0 0 0-76.629333 0l-416.426667 417.365333L96.256 15.957333a54.442667 54.442667 0 0 0-76.629333 0L17.237333 18.090667a53.589333 53.589333 0 0 0 0 76.8l416.426667 416.768-416.426667 416.853333a54.613333 54.613333 0 0 0 0 76.8l2.304 2.218667a54.442667 54.442667 0 0 0 76.629334 0l416.426666-416.853334 416.341334 416.853334a54.442667 54.442667 0 0 0 76.629333 0l2.304-2.304a54.613333 54.613333 0 0 0 0-76.8l-416.426667-416.768z" p-id="2324"></path></svg>