<?xml version="1.0" standalone="no"?><!DOCTYPE svg PUBLIC "-//W3C//DTD SVG 1.1//EN" "http://www.w3.org/Graphics/SVG/1.1/DTD/svg11.dtd"><svg t="1545452090440" class="icon" style="" viewBox="0 0 1024 1024" version="1.1" xmlns="http://www.w3.org/2000/svg" p-id="3765" xmlns:xlink="http://www.w3.org/1999/xlink" width="200" height="200"><defs><style type="text/css"></style></defs><path d="M370.193809 128.500653" p-id="3766" fill="#1296db"></path><path d="M931.496701 957.11159l-839.111083 0c-14.145162 0-25.611308-11.466146-25.611308-25.611308L66.774311 92.387154c0-14.145162 11.467169-25.611308 25.611308-25.611308l839.111083 0c14.145162 0 25.611308 11.467169 25.611308 25.611308l0 839.112106C957.109032 945.645444 945.641863 957.11159 931.496701 957.11159zM117.997949 905.887952 905.885394 905.887952 905.885394 117.998461 117.997949 117.998461 117.997949 905.887952z" p-id="3767" fill="#1296db"></path><path d="M418.687266 724.006532c-6.5553 0-13.109576-2.499937-18.110473-7.500834L214.127334 530.054191c-10.001795-10.002818-10.001795-26.219151 0-36.220946 10.002818-10.001795 26.219151-10.001795 36.220946 0L418.689313 662.175301l354.847797-354.793562c10.002818-10.001795 26.219151-9.999748 36.220946 0.00307s9.999748 26.219151-0.00307 36.220946L436.796716 716.50672C431.795818 721.505571 425.241542 724.006532 418.687266 724.006532z" p-id="3768" fill="#1296db"></path></svg>